<svg width="512" height="512" viewBox="0 0 512 512" fill="none" xmlns="http://www.w3.org/2000/svg">
<path d="M512 95.653L256 0.0300293L235.986 115.666L512 95.653Z" fill="#87868B"/>
<path d="M256 0.0300293L0 95.653L256 115.666V0.0300293Z" fill="#87868B"/>
<path d="M95.927 131.015H31.894V476.605H95.927V131.015Z" fill="#87868B"/>
<path d="M223.984 131.015H159.951V476.605H223.984V131.015Z" fill="#87868B"/>
<path d="M352.049 131.015H288.016V476.605H352.049V131.015Z" fill="#87868B"/>
<path d="M480.104 131.015H416.071V476.605H480.104V131.015Z" fill="#87868B"/>
<path d="M512 511.97V448.181H256L235.986 480.076L256 511.97H512Z" fill="#87868B"/>
<path d="M256 448.177H0V511.966H256V448.177Z" fill="#87868B"/>
<path d="M512 95.653H256L235.986 127.547L256 159.441H512V95.653Z" fill="#87868B"/>
<path d="M256 95.649H0V159.438H256V95.649Z" fill="#87868B"/>
</svg>
