<svg width="512" height="512" viewBox="0 0 512 512" fill="none" xmlns="http://www.w3.org/2000/svg">
<rect width="512" height="512" fill="white"/>
<g clip-path="url(#clip0)">
<path d="M331.844 156.809C331.844 115.008 297.836 81 256.035 81C214.238 81 180.23 115.008 180.23 156.809C180.23 198.605 214.234 232.613 256.035 232.613C297.836 232.613 331.844 198.605 331.844 156.809Z" fill="#87868B"/>
<path d="M256.035 422C267.781 406.699 336.648 312.055 359.832 280.434C387.406 242.828 412.844 205.098 412.844 156.809C412.844 70.207 342.637 0.00390625 256.035 0.00390625L256.016 0C169.41 0 99.2305 70.2031 99.2305 156.805C99.2305 205.094 124.664 242.828 152.238 280.434C175.426 312.055 256.035 422 256.035 422ZM150.23 156.809C150.23 98.4648 197.695 51 256.035 51C314.379 51 361.844 98.4648 361.844 156.809C361.844 215.148 314.379 262.613 256.035 262.613C197.695 262.613 150.23 215.148 150.23 156.809Z" fill="#87868B"/>
<path d="M313.621 394.203C310.516 398.445 255.484 471.984 255.484 471.984L198.457 394.203H129.414L85 512H427.07L382.652 394.203H313.621Z" fill="#87868B"/>
</g>
<defs>
<clipPath id="clip0">
<rect width="512" height="512" fill="white"/>
</clipPath>
</defs>
</svg>
